<svg width="48" height="48" viewBox="0 0 48 48" fill="none" xmlns="http://www.w3.org/2000/svg">
<path fill-rule="evenodd" clip-rule="evenodd" d="M48 24C48 37.2548 37.2548 48 24 48C10.7452 48 0 37.2548 0 24C0 10.7452 10.7452 0 24 0C37.2548 0 48 10.7452 48 24ZM10 24.18C10 23.3516 10.6716 22.68 11.5 22.68H22V11.5C22 10.6716 22.6716 9.99999 23.5 9.99999C24.3284 9.99999 25 10.6716 25 11.5V22.68H37.3C38.1284 22.68 38.8 23.3516 38.8 24.18C38.8 25.0084 38.1284 25.68 37.3 25.68H25V37.3C25 38.1284 24.3284 38.8 23.5 38.8C22.6716 38.8 22 38.1284 22 37.3V25.68H11.5C10.6716 25.68 10 25.0084 10 24.18Z" fill="#F5EDDA"/>
</svg>
