<svg width="60" height="60" viewBox="0 0 60 60" fill="none" xmlns="http://www.w3.org/2000/svg">
<circle cx="30" cy="30" r="30" fill="#F5EDDA"/>
<rect x="13" y="21" width="34" height="24" rx="3" fill="#363636"/>
<mask id="path-3-inside-1_10_564" fill="white">
<path d="M38 22C38 19.8783 37.1571 17.8434 35.6569 16.3431C34.1566 14.8429 32.1217 14 30 14C27.8783 14 25.8434 14.8429 24.3431 16.3431C22.8429 17.8434 22 19.8783 22 22L30 22H38Z"/>
</mask>
<path d="M38 22C38 19.8783 37.1571 17.8434 35.6569 16.3431C34.1566 14.8429 32.1217 14 30 14C27.8783 14 25.8434 14.8429 24.3431 16.3431C22.8429 17.8434 22 19.8783 22 22L30 22H38Z" stroke="#363636" stroke-width="4" mask="url(#path-3-inside-1_10_564)"/>
</svg>
